<svg width="40" height="40" viewBox="0 0 40 40" xmlns="http://www.w3.org/2000/svg">
<path d="M33.5714 31.4285H32.5V16.25C32.5 9.95087 27.8438 4.74551 21.7857 3.87944V2.14283C21.7857 1.15622 20.9866 0.357117 20 0.357117C19.0134 0.357117 18.2143 1.15622 18.2143 2.14283V3.87944C12.1563 4.74551 7.5 9.95087 7.5 16.25V31.4285H6.42857C5.63839 31.4285 5 32.0669 5 32.8571V34.2857C5 34.4821 5.16071 34.6428 5.35714 34.6428H15C15 37.4018 17.2411 39.6428 20 39.6428C22.7589 39.6428 25 37.4018 25 34.6428H34.6429C34.8393 34.6428 35 34.4821 35 34.2857V32.8571C35 32.0669 34.3616 31.4285 33.5714 31.4285ZM20 36.7857C18.817 36.7857 17.8571 35.8259 17.8571 34.6428H22.1429C22.1429 35.8259 21.183 36.7857 20 36.7857ZM10.7143 31.4285V16.25C10.7143 13.7678 11.6786 11.4375 13.433 9.68301C15.1875 7.92855 17.5179 6.96426 20 6.96426C22.4821 6.96426 24.8125 7.92855 26.567 9.68301C28.3214 11.4375 29.2857 13.7678 29.2857 16.25V31.4285H10.7143Z" fill="current"/>
</svg>
