<svg width="40" height="40" viewBox="0 0 40 40" fill="none" xmlns="http://www.w3.org/2000/svg">
<path d="M28.8214 6.51788L28.8393 6.50895H28.8482L20 1.42859L11.1563 6.50895H11.1473L11.1786 6.52234L3.90625 10.7143V29.2857L20 38.5714L36.0938 29.2857V10.7143L28.8214 6.51788ZM18.692 34.8036L12.3036 31.1161V24.8839L6.51786 21.5982V13.7902L18.692 20.8125V34.8036ZM7.77679 11.4956L13.7902 8.02234L19.9911 11.5804L26.2009 8.01341L32.2366 11.4956L20.0089 18.5491L7.77679 11.4956ZM33.4821 21.6206L27.7321 24.8839V31.0938L21.308 34.7991V20.8214L33.4821 13.7991V21.6206Z" fill="black"/>
</svg>
