<svg width="40" height="40" viewBox="0 0 40 40" xmlns="http://www.w3.org/2000/svg">
<path d="M37.3035 9.4866L28.616 14.8393L20.2857 3.72767C20.2521 3.68294 20.2087 3.64664 20.1587 3.62164C20.1087 3.59664 20.0536 3.58362 19.9977 3.58362C19.9418 3.58362 19.8867 3.59664 19.8367 3.62164C19.7867 3.64664 19.7433 3.68294 19.7098 3.72767L11.3839 14.8393L2.69191 9.4866C2.43744 9.33035 2.10708 9.54017 2.14726 9.83927L5.55798 35.7589C5.60708 36.1116 5.91066 36.3839 6.27226 36.3839H33.7321C34.0892 36.3839 34.3973 36.1161 34.4419 35.7589L37.8526 9.83927C37.8883 9.54017 37.5624 9.33035 37.3035 9.4866ZM31.6785 33.3303H8.31691L5.91512 15.0536L12.1562 18.8973L19.9999 8.43302L27.8437 18.8973L34.0848 15.0536L31.6785 33.3303ZM19.9999 19.8661C17.2276 19.8661 14.9732 22.1205 14.9732 24.8928C14.9732 27.6652 17.2276 29.9196 19.9999 29.9196C22.7723 29.9196 25.0267 27.6652 25.0267 24.8928C25.0267 22.1205 22.7723 19.8661 19.9999 19.8661ZM19.9999 27.0491C18.8124 27.0491 17.8482 26.0848 17.8482 24.8928C17.8482 23.7053 18.8124 22.7366 19.9999 22.7366C21.1874 22.7366 22.1517 23.7009 22.1517 24.8928C22.1517 26.0803 21.1874 27.0491 19.9999 27.0491Z" fill="current"/>
</svg>
