<svg width="40" height="40" viewBox="0 0 40 40" xmlns="http://www.w3.org/2000/svg">
<path d="M35.4688 31.2321C34.6267 29.2374 33.4046 27.4254 31.8706 25.8973C30.3413 24.3647 28.5297 23.1429 26.5358 22.2991C26.5179 22.2902 26.5001 22.2857 26.4822 22.2768C29.2635 20.2678 31.0715 16.9955 31.0715 13.3035C31.0715 7.18747 26.1161 2.23212 20.0001 2.23212C13.884 2.23212 8.92863 7.18747 8.92863 13.3035C8.92863 16.9955 10.7367 20.2678 13.5179 22.2812C13.5001 22.2902 13.4822 22.2946 13.4643 22.3035C11.4643 23.1473 9.6697 24.3571 8.12952 25.9018C6.59698 27.4311 5.37508 29.2427 4.53131 31.2366C3.70239 33.1886 3.25534 35.2814 3.21435 37.4018C3.21315 37.4494 3.22151 37.4968 3.23892 37.5412C3.25634 37.5855 3.28246 37.626 3.31574 37.6601C3.34902 37.6942 3.3888 37.7213 3.43272 37.7398C3.47664 37.7583 3.52383 37.7678 3.57149 37.7678H6.25006C6.44649 37.7678 6.60274 37.6116 6.6072 37.4196C6.69649 33.9732 8.08042 30.7455 10.5268 28.2991C13.0581 25.7678 16.4197 24.375 20.0001 24.375C23.5804 24.375 26.942 25.7678 29.4733 28.2991C31.9197 30.7455 33.3036 33.9732 33.3929 37.4196C33.3974 37.6161 33.5536 37.7678 33.7501 37.7678H36.4286C36.4763 37.7678 36.5235 37.7583 36.5674 37.7398C36.6113 37.7213 36.6511 37.6942 36.6844 37.6601C36.7177 37.626 36.7438 37.5855 36.7612 37.5412C36.7786 37.4968 36.787 37.4494 36.7858 37.4018C36.7411 35.2678 36.2992 33.1919 35.4688 31.2321ZM20.0001 20.9821C17.951 20.9821 16.0224 20.183 14.5715 18.7321C13.1206 17.2812 12.3215 15.3527 12.3215 13.3035C12.3215 11.2544 13.1206 9.32587 14.5715 7.87497C16.0224 6.42408 17.951 5.62497 20.0001 5.62497C22.0492 5.62497 23.9777 6.42408 25.4286 7.87497C26.8795 9.32587 27.6786 11.2544 27.6786 13.3035C27.6786 15.3527 26.8795 17.2812 25.4286 18.7321C23.9777 20.183 22.0492 20.9821 20.0001 20.9821Z" fill="current"/>
</svg>
